<?xml version="1.0" encoding="UTF-8" standalone="no"?>
<svg xmlns="http://www.w3.org/2000/svg" xmlns:xlink="http://www.w3.org/1999/xlink" width="285.14566" height="299.34134">
  <defs>
    <path id="b" fill="#b9b8b8" d="M505 342.36218c0 6.07513-6.04416 11-13.5 11s-13.5-4.92487-13.5-11 6.04416-11 13.5-11 13.5 4.92487 13.5 11z" overflow="visible" style="marker:none"/>
    <path id="d" fill="#545454" d="M212.8391362 479.25212333c0 15.1453358-8.70602044 27.42305621-19.44543318 27.42305621-10.73941275 0-19.4454332-12.27772042-19.4454332-27.4230562 0-15.1453358 8.70602045-27.42305622 19.4454332-27.42305622 10.73941274 0 19.44543319 12.27772043 19.44543319 27.42305621z"/>
    <path id="e" fill="#cacaca" d="M201.525433 479.2521307c0 10.73942-6.17336 19.44544-13.78858 19.44544s-13.78858-8.70602-13.78858-19.44544 6.17336-19.44544 13.78858-19.44544 13.78858 8.70602 13.78858 19.44544z"/>
    <path id="f" fill="#a0a1a1" d="M201.23644 475.38049s-9.25003-3.94423-25.51349 9.4908c.11883 10.59473 4.47256 13.8217 12.01349 13.8217 7.61522 0 13.78125-8.69808 13.78125-19.4375 0-1.32105-.10324-2.62791-.28125-3.875z"/>
    <path id="g" fill="#cacaca" d="M201.15595 454.75524c-1.875.9375-9.00489 4.81923-9.00489 4.81923 4 .75 5.36397 4.63908 5.36397 4.63908 1.5-1.5 5.4816-5.0729 8.3566-4.6354"/>
    <path id="h" fill="#2e3436" d="M198.32752 504.78304c-1.875.9375-6.35324-6.3177-6.35324-6.3177.81802 1.28033-5.59618 1.10355-5.59618 1.10355 1.5-1.5 1.41573 5.88725 4.29073 6.32475"/>
    <path id="i" fill="#a0a1a1" d="M196.75 495.86218s3.625-2.875 3.375-4.375 7.75 3.875 7.75 3.875-2.25 5.625-4.875 5.5c-2.18056-.10384-5.75-4.875-6.25-5z"/>
  </defs>
  <defs>
    <linearGradient id="a">
      <stop offset="0" stop-color="#2e3436"/>
      <stop offset="1" stop-color="#555753"/>
    </linearGradient>
    <linearGradient xlink:href="#a" id="c" x1="106.14554" x2="106.14554" y1="281.03445" y2="224.00177" gradientTransform="translate(2 1)" gradientUnits="userSpaceOnUse"/>
  </defs>
  <g transform="translate(1.2734396 -7.5796926)">
    <path fill="#a29f9f" d="M88.627904 251.13247h-12.59552c-3.280236 0-8.161823 1.75437-8.921589 4.94539l-7.846743 22.69257c-.759774 3.19103 5.342261 6.57456 8.622493 6.57456h12.595519c3.28023 0 6.53265-2.56895 7.29242-5.75999l5.40298-22.69255c.75978-3.19103-1.26933-5.75998-4.54956-5.75998z"/>
    <path fill="#fff" d="M87.165954 275.84392c-5.13339 5.08659-1.15147 4.07894-12.449002 7.35022l5.758722 1.01823c2.88331 0 8.25314-2.96798 7.58531-5.77289l-.89503-2.59556z"/>
    <path fill="#a29f9f" d="M207.11752 255.9713h14.16091c3.6879 0 9.17617 1.9724 10.03036 5.56001l8.82194 25.51281c.8542 3.58761-6.0062 7.39165-9.6941 7.39165h-14.1609c-3.6879 0-7.34454-2.88822-8.19873-6.47584l-6.07447-25.5128c-.8542-3.58761 1.42709-6.47583 5.11499-6.47583z"/>
    <path fill="#fff" d="M237.72421 283.40035c-5.77137 5.71875-1.29457 4.58587-13.99617 8.26371l6.47442 1.14478c3.24165 0 9.27884-3.33685 8.52801-6.49035l-1.00626-2.91814z"/>
    <g transform="matrix(-1 0 0 1 292.81113 -41.941126)">
      <path fill="#b9b8b8" d="M237.26874 294.86217h15.46253c4.02688 0 10.01962 2.1537 10.95232 6.07107l9.63283 27.85787c.93271 3.91737-6.55827 8.07106-10.58515 8.07106h-15.46253c-4.02688 0-8.01962-3.15369-8.95233-7.07107l-6.63282-27.85786c-.93271-3.91737 1.55827-7.07107 5.58515-7.07107z"/>
      <path fill="#fff" d="M240.57469 324.31241c6.30186 6.2444 1.41356 5.00739 15.28266 9.02329l-7.06953 1.25c-3.53962 0-10.13173-3.64356-9.31188-7.08692l1.09875-3.18637z"/>
      <path fill="#a29f9f" d="M238.83529 297.54599c-3.42852 0-5.55669 2.6778-4.76257 6.01308l5.59741 18.18784s17.64973-5.53867 26.64973-4.53867l-5.00203-14.50058c-.79411-3.33528-5.91038-5.16167-9.3389-5.16167h-13.14364z"/>
    </g>
    <g transform="translate(-22 4)">
      <path fill="#b9b8b8" d="M195.19589 260.92104h15.46253c4.02688 0 10.01962 2.1537 10.95232 6.07107l9.63283 27.85787c.93271 3.91737-6.55827 8.07106-10.58515 8.07106h-15.46253c-4.02688 0-8.01962-3.15369-8.95233-7.07107l-6.63282-27.85786c-.93271-3.91737 1.55827-7.07107 5.58515-7.07107z"/>
      <path fill="#fff" d="M228.61585 290.87128c-6.30186 6.2444-1.41356 5.00739-15.28266 9.02329l7.06953 1.25c3.53962 0 10.13173-3.64356 9.31188-7.08692l-1.09875-3.18637z"/>
      <path fill="#a29f9f" d="M196.76244 263.60486c-3.42852 0-5.55669 2.6778-4.76257 6.01308l4.09741 17.18784 28.14973-3.53867-5.00203-14.50058c-.79411-3.33528-5.91038-5.16167-9.3389-5.16167h-13.14364z"/>
    </g>
    <path fill="#b9b8b8" d="M432 350.36218c0 17.12083-22.83348 31-51 31s-51-13.87917-51-31c0-17.12082 22.83348-31 51-31s51 13.87918 51 31z" overflow="visible" style="marker:none" transform="translate(-252.31203 -246.78229)"/>
    <path fill="#00c4cc" d="M27.860234 121.00823c32.940721-17.85714 210.977466-72.71428 242.349586 3.00001 32.94072 90.71428-2.78759 130.38361-12.54885 141.42857-28.23491 27.85714-167.84081 25.71428-243.133888-7.14286-34.509325-56.42857-4.305704-127.72371 13.333152-137.28572z" overflow="visible" style="marker:none"/>
    <path fill="#555753" d="M33.52224 139.62148c21.57487-13.91949 138.1819-61.32628 158.7294-2.30761 21.57486 70.71104-1.82576 101.63296-8.21901 110.24242-18.49275 21.71441-109.92909 14.04407-159.24308-11.56781-22.60224-43.9856-2.82007-88.91349 8.73269-96.367z" overflow="visible" style="marker:none"/>
    <path fill="#888a85" d="M35.56741 141.3157c-2.501623 3.25371-5.711365 11.04353-7.46875 16.1875-2.65413 8.18442-4.87834 18.52265-5.96875 29.53125 26.595002-1.74641 50.938118-16.04277 73.46875-28.96875 35.12308-21.94865 77.46875-3.34375 77.46875-3.34375 14.14214-37.64823-14.39889-41.70463-14.39889-41.70463-48.16963-1.26998-82.468162 8.79593-123.10111 28.29838z" overflow="visible" style="marker:none"/>
    <path fill="#b9b8b8" d="m138.68795 76.57966 60-62 3 10-57.54003 53.95487-5.45997-1.95487z" overflow="visible" style="marker:none"/>
    <use xlink:href="#b" overflow="visible" style="marker:none" transform="translate(-289.31203 -323.78249)"/>
    <path fill="#b9b8b8" d="m124.68795 86.57966-55-53-2 7 46.87297 41.53784 10.12703 4.46216z" overflow="visible" style="marker:none"/>
    <use xlink:href="#b" overflow="visible" style="marker:none" transform="matrix(-.87037 0 0 .87037 499.72547 -259.47629)"/>
    <path fill="#007880" d="M234.14934 255.2132c-20.34774-.81825.53224 6.77641-19.48468 7.85111-26.09091.65755-51.42906 7.42492-77.42534 5.87064-39.552272-2.36477-79.698289-14.23062-119.012156-19.27689 33.34935 15.11479 83.247296 31.70005 125.054536 32.80942 21.57316.57245 63.9254-2.10647 80.15866-5.23896 16.13888-3.11428 27.39947-12.09159 32.81311-17.86396 6.89547-6.95274-12.79903-3.78238-22.10413-4.15136z" overflow="visible" style="marker:none"/>
    <path fill="#a8dde0" d="M148.24321 96.70537c-44.85732.26332-94.321797 15.40163-108.549107 23.87027-2.23247 1.32884-4.72807 4.36743-7.21905 8.69446 25.70814-14.06473 131.166077-42.315459 182.399397-12.85727-15.03589-14.80073-40.02824-19.86363-66.63124-19.70746z" overflow="visible" style="marker:none"/>
    <path fill="#a29f9f" d="M75.25 31.862182s6.25.5 6 4.5-2.75 6.5-2.75 6.5l-4.5-3.25s4.75-4.5 1.25-7.75zm131.87918-20.25s6.8959.534091 6.62007 4.806818c-.27584 4.272727-3.0342 6.943182-3.0342 6.943182L205.75 19.890591s5.24088-4.806818 1.37918-8.278409zM76.544309 47.254941c.707107 0 4.419418-2.298098 4.419418-2.298098l-1.944544 4.596195-2.474874-2.298097zM196.625 28.737181s-5.75-3-5.875-4 1.5 5.75-.25 7.375-2.5 4-2.5 4l8.625-7.375zM148.59375 75.875l-.25.28125c-.0311-.0055-.0627-.0259-.0937-.03125l.0625.0625-4.375 4.8125 10.8125 4.125s7.25 0 10.75.5c.48685-3.407955-9.44007-8.013074-16.65625-9.40625l-.25-.34375z"/>
    <path fill="#fff" d="M101.00879 80.112182s-16.75 4-21 20.749998c3.5-.5 6.911165-1.775124 6.911165-1.775124"/>
    <path fill="url(#c)" d="M128.47366 258.03159c-17.856-.11361-37.24307-3.49134-53.40625-7.8125-16.16318-4.32116-29.73724-10.10363-33.5-12.53125 1.19232.76925-.70084-.72224-2.3125-3.6875s-3.46955-7.2988-5.15625-12.5c-2.65413-8.18442-4.87834-18.52265-5.96875-29.53125 1.47053.0251 2.98698.0698 5.125.375 11.05324 1.57789 31.44959 8.03795 64.34375 28.59375 35.12308 21.94865 66.51565 14.21935 85.96875.34375 1.63153-1.16374 3.09732-2.40142 4.59375-3.625-1.06432 4.52165-2.32998 9.22616-3.84375 14.1875-3.50291 10.06142-9.76151 15.68116-19.40625 20s-22.54864 6.27587-36.4375 6.1875z" overflow="visible" style="marker:none"/>
    <path fill="#007880" d="M226.44574393 147.41133108c0 7.71035252-5.43951529 13.96082818-12.1494926 13.96082818-6.70997733 0-12.14949262-6.25047566-12.14949262-13.96082818s5.43951529-13.96082817 12.14949261-13.96082817c6.70997732 0 12.14949261 6.25047565 12.14949261 13.96082817z"/>
    <path fill="#00a7b3" d="M220.71293 107.40114c34.14721 90.26705 2.18404 144.03468-7.57722 155.07964 0 0 19.53125 8.46875 39.03125-.0312 9.76126-11.04496 49.85065-59.12271 7.71754-151.25121 0 0-25.17157-20.79718-39.17157-3.79718v-.00005z" overflow="visible" style="marker:none"/>
    <g transform="matrix(.6248 0 0 .5091 90.282033 -99.39999)">
      <use xlink:href="#d"/>
      <use xlink:href="#e"/>
      <use xlink:href="#f"/>
      <use xlink:href="#g"/>
      <use xlink:href="#h"/>
      <use xlink:href="#i"/>
    </g>
    <path fill="#007880" d="M232.10259793 196.90880108c0 7.71035252-5.43951529 13.96082818-12.1494926 13.96082818-6.70997733 0-12.14949262-6.25047566-12.14949262-13.96082818s5.43951529-13.96082817 12.14949261-13.96082817c6.70997732 0 12.14949261 6.25047565 12.14949261 13.96082817z"/>
    <g transform="matrix(.6248 0 0 .5091 96.0498 -50.09669)">
      <use xlink:href="#d"/>
      <use xlink:href="#e"/>
      <use xlink:href="#f"/>
      <use xlink:href="#g"/>
      <use xlink:href="#h"/>
      <use xlink:href="#i"/>
    </g>
    <path fill="#a8dde0" d="M239.71305 101.68295s-18.6124-6.788137-18.56365 10.01953c.0487 16.80766.42154-13.640834 18.56365-10.01953z"/>
    <path fill="#fff" d="M62.332732 39.051001c-1.638252-4.108132 2.538439-6.463466 2.538439-6.463466 2.14944.06929 5.904604 2.942433 5.904604 2.942433s-3.49602 1.26334-3.085162 6.191018c0 0-2.380975-2.617701-5.357881-2.669985zm129.046988-20.85965c-1.63825-4.108132 2.53844-6.463466 2.53844-6.463466 2.14944.06929 5.9046 2.942433 5.9046 2.942433s-3.49602 1.26334-3.08516 6.191018c0 0-2.38097-2.617701-5.35788-2.669985z"/>
  </g>
</svg>